<svg width="32" height="32" viewBox="0 0 32 32" fill="none" xmlns="http://www.w3.org/2000/svg">
<path d="M16 32C7.125 32 0 24.875 0 16C0 7.1875 7.125 0 16 0C24.8125 0 32 7.1875 32 16C32 24.875 24.8125 32 16 32ZM23.0625 13.0625H23C23.625 12.5 23.625 11.5625 23 10.9375C22.4375 10.375 21.5 10.375 20.9375 10.9375L14 17.9375L11.0625 15C10.4375 14.375 9.5 14.375 8.9375 15C8.3125 15.5625 8.3125 16.5 8.9375 17.0625L12.9375 21.0625C13.5 21.6875 14.4375 21.6875 15.0625 21.0625L23.0625 13.0625Z" fill="#58C0A9"/>
</svg>
