<svg width="51" height="50" viewBox="0 0 51 50" fill="none" xmlns="http://www.w3.org/2000/svg">
<path d="M25.833 0C19.2024 0 12.8439 2.63358 8.15526 7.32225C3.46659 12.0109 0.833008 18.3694 0.833008 25C0.833008 31.6306 3.46659 37.9891 8.15526 42.6777C12.8439 47.3664 19.2024 50 25.833 50C32.4636 50 38.8221 47.3664 43.5108 42.6777C48.1994 37.9891 50.833 31.6306 50.833 25C50.8254 18.372 48.1892 12.0177 43.5023 7.33074C38.8153 2.64381 32.461 0.00761465 25.833 0ZM25.833 47.0586C19.9826 47.0586 14.3719 44.7341 10.2349 40.5981C6.09865 36.4609 3.77444 30.8502 3.77444 25C3.77444 19.1498 6.09887 13.5389 10.2349 9.40192C14.3721 5.26564 19.9828 2.94143 25.833 2.94143C31.6832 2.94143 37.2942 5.26586 41.4311 9.40192C45.5674 13.5391 47.8916 19.1498 47.8916 25C47.8848 30.8487 45.5587 36.4551 41.4235 40.5905C37.2881 44.7259 31.6817 47.0518 25.833 47.0586Z" fill="#58C0A9"/>
<path d="M40.5435 23.5293H11.1314C10.7413 23.5293 10.3674 23.684 10.0912 23.9593C9.81582 24.2355 9.66113 24.6095 9.66113 24.9995C9.66113 30.7784 12.7444 36.1189 17.7492 39.0085C22.754 41.898 28.9205 41.898 33.9253 39.0085C38.9301 36.1191 42.0134 30.7786 42.0134 24.9995C42.0134 24.6094 41.8587 24.2355 41.5834 23.9593C41.3072 23.684 40.9332 23.5293 40.5432 23.5293H40.5435ZM12.6848 26.4699H19.4666V36.5958C15.6967 34.5205 13.1693 30.7454 12.6848 26.4699ZM22.4071 37.7796V26.4699H29.2697V37.7796L29.2705 37.7804C27.0227 38.3864 24.655 38.3864 22.4071 37.7804L22.4071 37.7796ZM32.2109 36.5949V26.4698H38.9927C38.5083 30.7453 35.9808 34.5204 32.2109 36.5958V36.5949Z" fill="#58C0A9"/>
<path d="M30.9751 19.117C31.3652 19.117 31.74 18.9623 32.0153 18.687C32.2915 18.4108 32.4462 18.0368 32.4462 17.6468C32.4462 16.0227 33.7626 14.7053 35.3876 14.7053C37.0117 14.7053 38.3282 16.0226 38.3282 17.6468C38.3282 18.4592 38.9868 19.117 39.7993 19.117C40.6109 19.117 41.2695 18.4592 41.2695 17.6468C41.2695 15.5451 40.1486 13.6032 38.3281 12.5528C36.5086 11.5015 34.2658 11.5015 32.4463 12.5528C30.6259 13.6032 29.5049 15.5451 29.5049 17.6468C29.5049 18.0368 29.6596 18.4108 29.9358 18.687C30.2111 18.9623 30.5851 19.117 30.9751 19.117Z" fill="#58C0A9"/>
<path d="M11.8657 19.117C12.2558 19.117 12.6298 18.9623 12.906 18.687C13.1813 18.4108 13.3368 18.0368 13.3368 17.6468C13.3368 16.0227 14.6533 14.7053 16.2774 14.7053C17.9023 14.7053 19.2188 16.0226 19.2188 17.6468C19.2188 18.4592 19.8774 19.117 20.6899 19.117C21.5015 19.117 22.1602 18.4592 22.1602 17.6468C22.1602 15.5451 21.0392 13.6032 19.2187 12.5528C17.3992 11.5015 15.1564 11.5015 13.3369 12.5528C11.5166 13.6032 10.3955 15.5451 10.3955 17.6468C10.3955 18.0368 10.5502 18.4108 10.8264 18.687C11.1017 18.9623 11.4757 19.117 11.8657 19.117Z" fill="#58C0A9"/>
</svg>
