<svg width="51" height="50" viewBox="0 0 51 50" fill="none" xmlns="http://www.w3.org/2000/svg">
<path d="M25.5 0C18.8694 0 12.5109 2.63358 7.82225 7.32225C3.13358 12.0109 0.5 18.3694 0.5 25C0.5 31.6306 3.13358 37.9891 7.82225 42.6777C12.5109 47.3664 18.8694 50 25.5 50C32.1306 50 38.4891 47.3664 43.1777 42.6777C47.8664 37.9891 50.5 31.6306 50.5 25C50.4924 18.372 47.8562 12.0177 43.1693 7.33074C38.4823 2.64381 32.128 0.00761465 25.5 0ZM25.5 47.0586C19.6496 47.0586 14.0389 44.7341 9.90192 40.5981C5.76564 36.4609 3.44143 30.8502 3.44143 25C3.44143 19.1498 5.76586 13.5389 9.90192 9.40192C14.0391 5.26564 19.6498 2.94143 25.5 2.94143C31.3502 2.94143 36.9611 5.26586 41.0981 9.40192C45.2344 13.5391 47.5586 19.1498 47.5586 25C47.5518 30.8487 45.2257 36.4551 41.0905 40.5905C36.9551 44.7259 31.3487 47.0518 25.5 47.0586Z" fill="#FF7A6A"/>
<path d="M32.9448 32.3555H18.064C17.2515 32.3555 16.5938 33.0141 16.5938 33.8257C16.5938 34.6382 17.2515 35.2968 18.064 35.2968H32.9448C33.7572 35.2968 34.415 34.6382 34.415 33.8257C34.415 33.0141 33.7572 32.3555 32.9448 32.3555Z" fill="#FF7A6A"/>
<path d="M34.3262 24.4802V20.0687C34.3262 19.2563 33.6684 18.5977 32.856 18.5977C32.0435 18.5977 31.3857 19.2563 31.3857 20.0687V24.4802C31.3857 25.2918 32.0435 25.9505 32.856 25.9505C33.6684 25.9505 34.3262 25.2918 34.3262 24.4802Z" fill="#FF7A6A"/>
<path d="M16.6768 20.0674V24.4789C16.6768 25.2905 17.3345 25.9492 18.147 25.9492C18.9595 25.9492 19.6172 25.2905 19.6172 24.4789V20.0674C19.6172 19.255 18.9595 18.5964 18.147 18.5964C17.3345 18.5964 16.6768 19.255 16.6768 20.0674Z" fill="#FF7A6A"/>
<path d="M32.8604 8.38023C31.3179 8.38193 29.8485 9.03886 28.8185 10.187C28.5559 10.4768 28.4191 10.8601 28.4395 11.251C28.459 11.642 28.635 12.0082 28.9265 12.27C29.2171 12.5309 29.6013 12.666 29.9922 12.6431C30.3823 12.621 30.7485 12.4434 31.0077 12.151C31.4777 11.6241 32.1491 11.3224 32.8545 11.3216C33.5607 11.3199 34.2329 11.6182 34.7054 12.1425C34.9663 12.434 35.3326 12.6091 35.7236 12.6295C36.1136 12.6499 36.4961 12.5139 36.7867 12.2513C37.0765 11.9887 37.2499 11.6215 37.2686 11.2315C37.2873 10.8405 37.1496 10.4581 36.8861 10.1692C35.857 9.03204 34.3944 8.38193 32.8604 8.38021V8.38023Z" fill="#FF7A6A"/>
<path d="M22.1822 14.5267C22.4456 14.2377 22.5833 13.8561 22.5646 13.4652C22.5459 13.0751 22.3726 12.708 22.0828 12.4454C21.7921 12.1828 21.4097 12.0468 21.0196 12.0672C20.6287 12.0876 20.2624 12.2626 20.0015 12.5541C19.529 13.0785 18.8567 13.3768 18.1505 13.3751C17.4451 13.3734 16.7738 13.0717 16.3038 12.5456C16.0446 12.2533 15.6783 12.0765 15.2882 12.0544C14.8973 12.0323 14.514 12.1666 14.2233 12.4275C13.9319 12.6893 13.7568 13.0555 13.7364 13.4456C13.716 13.8366 13.852 14.219 14.1146 14.5096C15.1403 15.6561 16.6054 16.313 18.1445 16.3164C19.6835 16.3198 21.1512 15.6697 22.1822 14.5266V14.5267Z" fill="#FF7A6A"/>
</svg>
