<svg width="31" height="48" viewBox="0 0 31 48" fill="none" xmlns="http://www.w3.org/2000/svg">
<path d="M25.666 6C26.416 6 27.166 6.75 27.166 7.5V40.5C27.166 41.3438 26.416 42 25.666 42C24.8223 42 24.166 41.3438 24.166 40.5V27.9375L7.75977 41.4375C7.29102 41.8125 6.63477 42 5.97852 42C5.04102 42 3.16602 41.25 3.16602 39V9.09375C3.16602 6.84375 5.04102 6 5.97852 6C6.63477 6 7.29102 6.28125 7.75977 6.65625L24.166 20.1562V7.5C24.166 6.75 24.8223 6 25.666 6ZM6.16602 39.0938L24.0723 24L6.16602 9V39.0938Z" fill="#4D4C53"/>
</svg>
