<svg width="32" height="32" viewBox="0 0 32 32" fill="none" xmlns="http://www.w3.org/2000/svg">
<path d="M16 32C7.125 32 0 24.875 0 16C0 7.1875 7.125 0 16 0C24.8125 0 32 7.1875 32 16C32 24.875 24.8125 32 16 32ZM11.625 8.5625C11.0625 7.9375 10.125 7.875 9.5 8.375C8.875 8.9375 8.8125 9.875 9.3125 10.5L14 16L9.3125 21.5625C8.8125 22.1875 8.875 23.125 9.5 23.6875C10.125 24.1875 11.0625 24.125 11.625 23.5L16 18.375L20.3125 23.5C20.875 24.125 21.8125 24.1875 22.4375 23.6875C23.0625 23.125 23.125 22.1875 22.625 21.5625L17.9375 16L22.625 10.5C23.125 9.875 23.0625 8.9375 22.4375 8.375C21.8125 7.875 20.875 7.9375 20.3125 8.5625L16 13.6875L11.625 8.5625Z" fill="#BE222A"/>
</svg>
